<svg width="64" height="64" viewBox="0 0 64 64" fill="none" xmlns="http://www.w3.org/2000/svg">
<path d="M22.5263 23.4737H15.8948C8.56877 23.4737 2.63162 29.4108 2.63162 36.7368C2.63162 44.0628 8.56877 49.9999 15.8948 49.9999H43.3684C53.311 49.9999 61.3684 41.9426 61.3684 32C61.3684 22.0574 53.311 14 43.3684 14C37.975 14 33.1463 16.3817 29.8495 20.1389C28.1139 22.1957 25.431 23.4737 22.5263 23.4737Z" fill="white"/>
<path d="M25.3684 27.2632C27.7368 27.2632 29.6344 25.9236 31.8257 23.7324C35.0979 20.4621 38.6079 17.7896 43.3684 17.7896C51.2164 17.7896 57.5789 24.1521 57.5789 32.0001C57.5789 39.848 51.2164 46.2106 43.3684 46.2106H15.8948C10.6624 46.2106 6.42108 41.9682 6.42108 36.7369C6.42108 31.5055 10.6624 27.2632 15.8948 27.2632L15.9241 26.3386L25.4281 26.3102L25.3684 27.2632Z" fill="#EA5A47"/>
<path d="M43.3684 36.7366C45.9845 36.7366 48.1053 34.6159 48.1053 31.9998C48.1053 29.3837 45.9845 27.2629 43.3684 27.2629C40.7523 27.2629 38.6316 29.3837 38.6316 31.9998C38.6316 34.6159 40.7523 36.7366 43.3684 36.7366Z" fill="white"/>
<path d="M25.3684 27.2632C27.7368 27.2632 29.6344 25.9236 31.8257 23.7324C35.0979 20.4621 38.6079 17.7896 43.3684 17.7896C51.2164 17.7896 57.5789 24.1521 57.5789 32.0001C57.5789 39.848 51.2164 46.2106 43.3684 46.2106H15.8948C10.6624 46.2106 6.42108 41.9682 6.42108 36.7369C6.42108 31.5055 10.6624 27.2632 15.8948 27.2632" stroke="black" stroke-width="2" stroke-miterlimit="10" stroke-linecap="round" stroke-linejoin="round"/>
<path d="M22.5263 23.4737H15.8948C8.56877 23.4737 2.63162 29.4108 2.63162 36.7368C2.63162 44.0628 8.56877 49.9999 15.8948 49.9999H43.3684C53.311 49.9999 61.3684 41.9426 61.3684 32C61.3684 22.0574 53.311 14 43.3684 14C37.975 14 33.1463 16.3817 29.8495 20.1389C28.1139 22.1957 25.431 23.4737 22.5263 23.4737Z" stroke="black" stroke-width="2" stroke-miterlimit="10" stroke-linecap="round" stroke-linejoin="round"/>
<path d="M43.3684 36.7366C45.9845 36.7366 48.1053 34.6159 48.1053 31.9998C48.1053 29.3837 45.9845 27.2629 43.3684 27.2629C40.7523 27.2629 38.6316 29.3837 38.6316 31.9998C38.6316 34.6159 40.7523 36.7366 43.3684 36.7366Z" stroke="black" stroke-width="2" stroke-miterlimit="10" stroke-linecap="round" stroke-linejoin="round"/>
</svg>
