<svg width="64" height="64" viewBox="0 0 64 64" fill="none" xmlns="http://www.w3.org/2000/svg">
<path d="M37.7 62C-9.79999 62 -9.79999 2 37.7 2V62Z" fill="#9E7658"/>
<path d="M37.7 62C51.1205 62 62 48.5685 62 32C62 15.4315 51.1205 2 37.7 2C24.2795 2 13.4 15.4315 13.4 32C13.4 48.5685 24.2795 62 37.7 62Z" fill="#89664C"/>
<path d="M37.7 60.2999C50.3473 60.2999 60.6 47.6296 60.6 32C60.6 16.3703 50.3473 3.69995 37.7 3.69995C25.0527 3.69995 14.8 16.3703 14.8 32C14.8 47.6296 25.0527 60.2999 37.7 60.2999Z" fill="#B2D921"/>
<path d="M37.7 56.7001C48.7457 56.7001 57.7 45.6415 57.7 32C57.7 18.3586 48.7457 7.30005 37.7 7.30005C26.6543 7.30005 17.7 18.3586 17.7 32C17.7 45.6415 26.6543 56.7001 37.7 56.7001Z" fill="#C7E755"/>
<path d="M53.4 37.3C53.1 38.7 47.2 37.3 46.7 38.5C46.1 39.8 50 45.3 49.2 46.3C48.4 47.3 43.9 42.5 42.9 43.2C41.9 43.9 43 51.1 41.9 51.5C40.8 51.9 38.9 44.9 37.7 44.9C36.6 44.9 34.6 51.8 33.5 51.4C32.3 51 33.5 43.8 32.5 43.1C31.5 42.4 27 47.2 26.2 46.2C25.4 45.2 29.3 39.7 28.7 38.4C28.1 37.2 22.3 38.5 22 37.2C21.7 35.8 27.3 33.5 27.3 32C27.3 30.6 21.7 28.2 22 26.8C22.3 25.4 28.2 26.8 28.7 25.6C29.3 24.3 25.4 18.8 26.2 17.8C27 16.8 31.5 21.6 32.5 20.9C33.5 20.2 32.4 13 33.5 12.6C34.6 12.2 36.5 19.2 37.7 19.2C38.8 19.2 40.8 12.3 41.9 12.6C43.1 13 41.9 20.2 42.9 20.9C43.9 21.6 48.4 16.8 49.2 17.8C50 18.8 46.1 24.3 46.7 25.6C47.3 26.8 53.1 25.5 53.4 26.8C53.7 28.2 48.1 30.5 48.1 32C48.1 33.5 53.7 35.9 53.4 37.3Z" fill="#B2D921"/>
<path d="M51 32.0001L42.9 33.7001L49.2 40.2001L41.5 36.7001L44.3 46.2001L39.1 38.5001L37.7 48.4001L36.2 38.5001L31 46.2001L33.8 36.7001L26.1 40.2001L32.4 33.7001L24.3 32.0001L32.4 30.3001L26.1 23.8001L33.8 27.3001L31 17.8001L36.2 25.5001L37.7 15.6001L39.1 25.5001L44.3 17.8001L41.5 27.3001L49.2 23.8001L42.9 30.3001L51 32.0001Z" fill="#ECFFAD"/>
<path d="M34.9 17.3999L34.5 19.7999L35.8 21.6999L36.2 19.2999L34.9 17.3999Z" fill="#3E4347"/>
<path d="M32.4 14L31.9 16.4L33.2 18.3L33.7 15.9L32.4 14Z" fill="#3E4347"/>
<path d="M41.4 16.8999L39.7 18.1999L39.5 20.6999L41.2 19.2999L41.4 16.8999Z" fill="#3E4347"/>
<path d="M40.4 46.6L40.9 44.2001L39.5 42.3L39.1 44.7001L40.4 46.6Z" fill="#3E4347"/>
<path d="M43 50L43.4 47.5999L42.1 45.7L41.6 48.0999L43 50Z" fill="#3E4347"/>
<path d="M33.9 47.1L35.6 45.8L35.8 43.3L34.1 44.7001L33.9 47.1Z" fill="#3E4347"/>
<path d="M49.5 28.6001L47.6 28.1001L46 29.7001L48 30.2001L49.5 28.6001Z" fill="#3E4347"/>
<path d="M52.3 25.4999L50.3 24.8999L48.8 26.4999L50.7 27.0999L52.3 25.4999Z" fill="#3E4347"/>
<path d="M49.9 36.6L48.9 34.5L46.9 34.3L47.9 36.4001L49.9 36.6Z" fill="#3E4347"/>
<path d="M25.8 35.4001L27.8 35.9001L29.3 34.3L27.3 33.8L25.8 35.4001Z" fill="#3E4347"/>
<path d="M23.1 38.4999L25 39.0999L26.5 37.4999L24.6 36.8999L23.1 38.4999Z" fill="#3E4347"/>
<path d="M25.4 27.3999L26.4 29.4999L28.4 29.6999L27.4 27.5999L25.4 27.3999Z" fill="#3E4347"/>
<path d="M47.2 22.6001L45.2 23.2001L44.4 25.4001L46.3 24.9001L47.2 22.6001Z" fill="#3E4347"/>
<path d="M48.5 18.3L46.6 18.9L45.8 21.2001L47.7 20.6L48.5 18.3Z" fill="#3E4347"/>
<path d="M26.8 45.7001L28.7 45.1L29.6 42.8L27.6 43.4001L26.8 45.7001Z" fill="#3E4347"/>
<path d="M30 20.3L30.5 22.7001L32.3 23.7001L31.9 21.3L30 20.3Z" fill="#3E4347"/>
<path d="M26.6 18.6001L27 21.0001L28.9 22.0001L28.4 19.6001L26.6 18.6001Z" fill="#3E4347"/>
<path d="M48.7 45.4L48.3 43L46.5 42L46.9 44.4L48.7 45.4Z" fill="#3E4347"/>
</svg>
