<svg width="234" height="234" viewBox="0 0 234 234" fill="none" xmlns="http://www.w3.org/2000/svg">
<path d="M163.54 104.52C170.002 104.52 175.24 99.2817 175.24 92.82C175.24 86.3583 170.002 81.12 163.54 81.12C157.078 81.12 151.84 86.3583 151.84 92.82C151.84 99.2817 157.078 104.52 163.54 104.52Z" fill="#4A5867" fill-opacity="0.45"/>
<path d="M74.165 104.52C80.6268 104.52 85.865 99.2817 85.865 92.82C85.865 86.3583 80.6268 81.12 74.165 81.12C67.7033 81.12 62.465 86.3583 62.465 92.82C62.465 99.2817 67.7033 104.52 74.165 104.52Z" fill="#4A5867" fill-opacity="0.45"/>
<path d="M118.04 130C108.715 130.002 99.5254 132.232 91.2375 136.506C82.9496 140.78 75.8035 146.974 70.395 154.57C69.3951 155.975 68.9943 157.72 69.2808 159.42C69.5673 161.121 70.5175 162.638 71.9225 163.638C73.3275 164.637 75.0721 165.038 76.7726 164.752C78.4731 164.465 79.9901 163.515 80.99 162.11C85.1461 156.272 90.6222 151.499 96.9724 148.179C103.323 144.858 110.367 143.084 117.533 143.002C124.698 142.92 131.782 144.531 138.207 147.705C144.631 150.878 150.216 155.525 154.505 161.265C155.539 162.644 157.079 163.556 158.786 163.8C160.492 164.043 162.226 163.599 163.605 162.565C164.984 161.531 165.896 159.991 166.14 158.284C166.383 156.578 165.939 154.844 164.905 153.465C159.456 146.179 152.383 140.264 144.247 136.191C136.112 132.117 127.138 129.997 118.04 130V130Z" fill="#4A5867" fill-opacity="0.45"/>
</svg>
