<svg width="64" height="64" viewBox="0 0 64 64" fill="none" xmlns="http://www.w3.org/2000/svg">
<path d="M48.2145 2.73315C48.2145 2.73315 42.2984 12.552 39.2093 13.4898C36.1203 14.4275 32.2451 16.11 28.1769 12.4003C28.354 10.7705 28.9431 9.21261 29.8889 7.87353C30.8347 6.53446 32.106 5.45833 33.5828 4.74658C38.6715 2.36082 40.9332 5.60159 47.1665 3.13309C47.4884 2.96772 47.8255 2.83377 48.1732 2.73315" fill="url(#paint0_linear_433_15)"/>
<path d="M31.6935 62.7909C45.3723 62.7909 56.4612 51.702 56.4612 38.0231C56.4612 24.3443 45.3723 13.2554 31.6935 13.2554C18.0146 13.2554 6.92572 24.3443 6.92572 38.0231C6.92572 51.702 18.0146 62.7909 31.6935 62.7909Z" fill="url(#paint1_linear_433_15)"/>
<path d="M28.8665 20.123C29.2244 20.123 29.5146 19.8328 29.5146 19.4748C29.5146 19.1169 29.2244 18.8267 28.8665 18.8267C28.5085 18.8267 28.2183 19.1169 28.2183 19.4748C28.2183 19.8328 28.5085 20.123 28.8665 20.123Z" fill="#C67413"/>
<path d="M33.7759 21.8328C34.2481 21.8328 34.6309 21.45 34.6309 20.9778C34.6309 20.5056 34.2481 20.1228 33.7759 20.1228C33.3037 20.1228 32.9209 20.5056 32.9209 20.9778C32.9209 21.45 33.3037 21.8328 33.7759 21.8328Z" fill="#C67413"/>
<path d="M28.1631 23.7771C28.5515 23.7771 28.8664 23.5981 28.8664 23.3772C28.8664 23.1563 28.5515 22.9773 28.1631 22.9773C27.7747 22.9773 27.4598 23.1563 27.4598 23.3772C27.4598 23.5981 27.7747 23.7771 28.1631 23.7771Z" fill="#C67413"/>
<path d="M19.4613 5.96003C19.4613 5.96003 19.9853 2.5124 22.0125 2.01594C24.0397 1.51948 30.2868 12.7725 29.9283 14.2343C29.5697 15.6961 27.3219 14.2343 27.3219 14.2343C27.3219 14.2343 22.9503 5.54631 19.4613 5.96003Z" fill="url(#paint2_linear_433_15)"/>
<path d="M24.4555 19.9832C25.0511 19.9832 25.5339 19.8064 25.5339 19.5883C25.5339 19.3702 25.0511 19.1934 24.4555 19.1934C23.8599 19.1934 23.3771 19.3702 23.3771 19.5883C23.3771 19.8064 23.8599 19.9832 24.4555 19.9832Z" fill="#C67413"/>
<path d="M19.276 22.7622C19.6703 22.7622 19.9899 22.4426 19.9899 22.0484C19.9899 21.6541 19.6703 21.3345 19.276 21.3345C18.8817 21.3345 18.5621 21.6541 18.5621 22.0484C18.5621 22.4426 18.8817 22.7622 19.276 22.7622Z" fill="#C67413"/>
<path d="M45.7322 54.8061C47.9709 52.7345 49.7795 50.2422 51.0549 47.4715C52.3302 44.7008 53.0473 41.706 53.1651 38.6582C53.2829 35.6103 52.7992 32.5692 51.7415 29.7083C50.6839 26.8474 49.073 24.2229 47.001 21.9847C46.2627 21.2041 45.475 20.4717 44.6428 19.792C48.4437 22.035 51.4677 25.3865 53.3094 29.3972C55.1511 33.4079 55.7223 37.8859 54.9465 42.2304C54.1706 46.575 52.0847 50.5785 48.9687 53.7038C45.8526 56.8291 41.8554 58.9268 37.5131 59.7155C40.5651 58.6699 43.3647 56.9976 45.7322 54.8061Z" fill="#F8E6D1"/>
<defs>
<linearGradient id="paint0_linear_433_15" x1="27.9615" y1="11.4386" x2="49.0059" y2="5.47973" gradientUnits="userSpaceOnUse">
<stop stop-color="#397D3C"/>
<stop offset="1" stop-color="#6C8C36"/>
</linearGradient>
<linearGradient id="paint1_linear_433_15" x1="6.91193" y1="38.0231" x2="56.4612" y2="38.0231" gradientUnits="userSpaceOnUse">
<stop stop-color="#FDC438"/>
<stop offset="1" stop-color="#F49619"/>
</linearGradient>
<linearGradient id="paint2_linear_433_15" x1="19.4613" y1="8.44232" x2="29.9421" y2="8.44232" gradientUnits="userSpaceOnUse">
<stop stop-color="#D09306"/>
<stop offset="1" stop-color="#C67413"/>
</linearGradient>
</defs>
</svg>
