<svg width="399" height="60" viewBox="0 0 399 60" fill="none" xmlns="http://www.w3.org/2000/svg">
<path d="M43.742 1.86873C44.1214 2.27576 44.4156 2.7545 44.6074 3.27682C44.7992 3.79914 44.8846 4.3545 44.8588 4.91031V43.6156C44.8879 44.1404 44.8095 44.6655 44.6283 45.1589C44.4472 45.6522 44.1673 46.1034 43.8056 46.4847C43.4473 46.8365 43.0208 47.1114 42.5524 47.2925C42.084 47.4736 41.5836 47.5571 41.0818 47.5379C40.5861 47.5631 40.0907 47.4822 39.6288 47.3006C39.1669 47.1189 38.7491 46.8408 38.4034 46.4847C37.7139 45.6934 37.3619 44.6634 37.4228 43.6156V16.6772L26.3097 37.7322C25.8953 38.5493 25.3174 39.2724 24.6118 39.8568C23.9855 40.3143 23.2264 40.5535 22.4509 40.5377C21.6795 40.5549 20.9226 40.3259 20.2901 39.884C19.5676 39.3055 18.9868 38.5695 18.5922 37.7322L7.39736 17.0131V43.6156C7.44601 44.6599 7.08058 45.6811 6.38048 46.4574C5.64997 47.143 4.68575 47.5246 3.68391 47.5246C2.68207 47.5246 1.71785 47.143 0.987339 46.4574C0.297877 45.6661 -0.0541331 44.6362 0.00676722 43.5884V4.91031C-0.0452081 3.7941 0.342724 2.70203 1.08721 1.86873C1.46542 1.48405 1.92043 1.18336 2.42259 0.986252C2.92475 0.789143 3.4628 0.700033 4.00169 0.72473C5.69953 0.72473 7.02512 1.63267 7.98753 3.53934L22.5145 31.1951L36.9598 3.53934C37.9222 1.66899 39.2114 0.72473 40.8185 0.72473C41.3582 0.70435 41.8964 0.795417 42.3994 0.992244C42.9024 1.18907 43.3594 1.48744 43.742 1.86873Z" fill="#FAFAFA"/>
<path d="M54.6645 7.49789C54.2299 7.09418 53.8879 6.60103 53.6622 6.05243C53.4365 5.50383 53.3324 4.91282 53.3571 4.32012C53.3298 3.7338 53.4329 3.14872 53.6589 2.60706C53.885 2.0654 54.2285 1.58064 54.6645 1.18774C55.6456 0.359972 56.9056 -0.0621914 58.1873 0.00742129C59.462 -0.051196 60.7124 0.369926 61.692 1.18774C62.1335 1.57767 62.4824 2.06121 62.7132 2.60311C62.9441 3.145 63.0512 3.73159 63.0266 4.32012C63.0495 4.9126 62.9446 5.50307 62.719 6.05139C62.4934 6.59972 62.1524 7.09306 61.7192 7.49789C60.7099 8.2805 59.469 8.70524 58.1919 8.70524C56.9147 8.70524 55.6738 8.2805 54.6645 7.49789ZM55.2819 46.5391C54.8872 46.1704 54.5796 45.7183 54.3817 45.2157C54.1838 44.713 54.1005 44.1726 54.1379 43.6337V18.375C54.1015 17.8416 54.1854 17.3068 54.3834 16.8102C54.5814 16.3136 54.8885 15.8679 55.2819 15.5059C56.0976 14.8341 57.1314 14.4852 58.1873 14.5253C59.254 14.4872 60.2986 14.8354 61.129 15.5059C61.5328 15.8614 61.8493 16.3052 62.0539 16.8027C62.2586 17.3002 62.346 17.8382 62.3093 18.375V43.6156C62.3422 44.1573 62.2532 44.6994 62.0489 45.2022C61.8447 45.705 61.5303 46.1556 61.129 46.521C60.307 47.2105 59.2596 47.5725 58.1873 47.5379C57.1258 47.5739 56.0893 47.2111 55.2819 46.521V46.5391Z" fill="#FAFAFA"/>
<path d="M165 6C165 6 159.685 15.0295 156.911 15.8919C154.136 16.7543 150.655 18.3015 147 14.89C147.159 13.3912 147.688 11.9586 148.538 10.7272C149.388 9.49573 150.529 8.5061 151.856 7.85157C156.427 5.6576 158.459 8.63785 164.059 6.36779C164.348 6.21571 164.651 6.09253 164.963 6" fill="url(#paint0_linear_419_37)"/>
<path d="M149.377 47.2308C158.383 47.2308 165.684 39.9302 165.684 30.9243C165.684 21.9185 158.383 14.6178 149.377 14.6178C140.372 14.6178 133.071 21.9185 133.071 30.9243C133.071 39.9302 140.372 47.2308 149.377 47.2308Z" fill="url(#paint1_linear_419_37)"/>
<path d="M147.516 19.1392C147.752 19.1392 147.943 18.9482 147.943 18.7125C147.943 18.4768 147.752 18.2858 147.516 18.2858C147.28 18.2858 147.089 18.4768 147.089 18.7125C147.089 18.9482 147.28 19.1392 147.516 19.1392Z" fill="#C67413"/>
<path d="M150.748 20.2651C151.059 20.2651 151.311 20.0131 151.311 19.7022C151.311 19.3913 151.059 19.1393 150.748 19.1393C150.437 19.1393 150.185 19.3913 150.185 19.7022C150.185 20.0131 150.437 20.2651 150.748 20.2651Z" fill="#C67413"/>
<path d="M147.053 21.5453C147.309 21.5453 147.516 21.4274 147.516 21.282C147.516 21.1366 147.309 21.0187 147.053 21.0187C146.797 21.0187 146.59 21.1366 146.59 21.282C146.59 21.4274 146.797 21.5453 147.053 21.5453Z" fill="#C67413"/>
<path d="M158.62 41.9557C160.094 40.5918 161.285 38.9509 162.124 37.1267C162.964 35.3026 163.436 33.3309 163.514 31.3243C163.591 29.3176 163.273 27.3154 162.577 25.4319C161.88 23.5483 160.82 21.8204 159.455 20.3468C158.969 19.8329 158.451 19.3507 157.903 18.9032C160.405 20.3799 162.396 22.5865 163.609 25.2271C164.821 27.8676 165.197 30.8158 164.687 33.6762C164.176 36.5365 162.802 39.1723 160.751 41.2299C158.699 43.2876 156.068 44.6686 153.209 45.1879C155.218 44.4995 157.061 43.3985 158.62 41.9557Z" fill="#F8E6D1"/>
<path d="M99.3592 45.4332C96.0281 43.5241 93.351 40.6539 91.6781 37.1982C89.9126 33.2554 89 28.9841 89 24.6641C89 20.3441 89.9126 16.0728 91.6781 12.1301C93.3679 8.70231 96.0424 5.85702 99.3592 3.95864C102.921 1.97041 106.948 0.96459 111.026 1.04418C113.781 1.02418 116.52 1.45667 119.134 2.32437C121.586 3.13068 123.87 4.38011 125.871 6.01059C126.366 6.37072 126.767 6.84387 127.042 7.39064C127.275 7.94779 127.387 8.54833 127.369 9.15204C127.395 10.0258 127.119 10.8819 126.588 11.5762C126.37 11.8758 126.085 12.1203 125.755 12.2905C125.426 12.4607 125.061 12.5519 124.691 12.5568C123.712 12.5361 122.762 12.2196 121.967 11.6489C120.384 10.4136 118.62 9.43053 116.737 8.73439C115.005 8.17165 113.192 7.89562 111.371 7.91724C106.838 7.91724 103.406 9.33363 101.075 12.1664C98.7449 14.9991 97.5797 19.1605 97.5797 24.6505C97.5797 30.1889 98.7449 34.3745 101.075 37.2073C103.406 40.04 106.838 41.4564 111.371 41.4564C113.142 41.476 114.902 41.1872 116.574 40.6029C118.483 39.8698 120.295 38.903 121.967 37.7248C122.386 37.4773 122.823 37.2619 123.274 37.0801C123.709 36.9016 124.175 36.812 124.645 36.8168C125.016 36.8196 125.382 36.9099 125.711 37.0802C126.041 37.2506 126.326 37.4963 126.543 37.7974C127.074 38.4883 127.35 39.3415 127.324 40.2125C127.335 40.8069 127.224 41.3973 126.997 41.9467C126.731 42.5066 126.328 42.9905 125.826 43.354C123.823 44.9839 121.54 46.2361 119.089 47.0493C116.473 47.9093 113.734 48.3386 110.981 48.3204C106.92 48.4002 102.91 47.4041 99.3592 45.4332Z" fill="#FAFAFA"/>
<path d="M216.147 17.4596C217.999 19.5297 218.925 22.8739 218.925 27.4923V43.5718C218.96 44.1118 218.876 44.6528 218.678 45.1565C218.48 45.6602 218.174 46.1142 217.781 46.4863C216.953 47.182 215.893 47.5416 214.812 47.4941C213.749 47.535 212.709 47.1753 211.898 46.4863C211.505 46.1142 211.199 45.6602 211.001 45.1565C210.803 44.6528 210.719 44.1118 210.754 43.5718V27.4923C210.754 25.0711 210.33 23.3612 209.483 22.3624C208.994 21.8284 208.39 21.4127 207.717 21.1468C207.044 20.8809 206.319 20.7719 205.597 20.828C204.636 20.7829 203.678 20.9564 202.794 21.3354C201.91 21.7145 201.124 22.2891 200.494 23.0161C199.151 24.7114 198.476 26.8401 198.597 28.9994V43.5264C198.632 44.0664 198.547 44.6074 198.349 45.1111C198.152 45.6148 197.846 46.0688 197.453 46.4409C196.659 47.156 195.625 47.5451 194.556 47.5304C193.485 47.5685 192.437 47.2096 191.615 46.5226C191.212 46.1563 190.897 45.7042 190.693 45.1997C190.488 44.6953 190.4 44.1513 190.434 43.6081V27.4923C190.434 25.0711 190.011 23.3612 189.163 22.3624C188.673 21.8277 188.068 21.4116 187.393 21.1457C186.718 20.8798 185.991 20.7712 185.268 20.828C184.313 20.7845 183.36 20.9588 182.483 21.3379C181.605 21.717 180.825 22.2909 180.202 23.0161C178.879 24.7201 178.217 26.8456 178.341 28.9994V43.5264C178.375 44.0696 178.287 44.6135 178.082 45.118C177.878 45.6225 177.563 46.0746 177.16 46.4409C176.337 47.1279 175.29 47.4868 174.219 47.4487C173.158 47.4882 172.121 47.1286 171.313 46.4409C170.92 46.0688 170.614 45.6148 170.416 45.1111C170.219 44.6074 170.134 44.0664 170.169 43.5264V18.2767C170.137 17.7485 170.227 17.2199 170.431 16.7318C170.636 16.2437 170.95 15.8093 171.349 15.4621C172.18 14.7916 173.225 14.4434 174.291 14.4816C175.304 14.4422 176.294 14.7821 177.069 15.4349C177.439 15.7807 177.727 16.2046 177.913 16.6758C178.098 17.147 178.176 17.6536 178.141 18.1587V19.7294C179.082 18.0504 180.476 16.6694 182.163 15.7436C183.946 14.8022 185.94 14.3304 187.956 14.3726C192.743 14.3726 195.945 16.3761 197.562 20.3831C198.526 18.545 200.002 17.0252 201.811 16.0069C203.743 14.8997 205.939 14.335 208.166 14.3726C211.635 14.3605 214.295 15.3895 216.147 17.4596Z" fill="#FAFAFA"/>
<path d="M252.955 16.4427C255.159 17.8986 256.904 19.9518 257.985 22.3624C259.233 25.1215 259.853 28.1234 259.801 31.1513C259.861 34.1507 259.24 37.1247 257.985 39.8493C256.918 42.2232 255.173 44.2286 252.97 45.6131C250.766 46.9977 248.202 47.6995 245.6 47.6303C243.484 47.6669 241.392 47.1705 239.517 46.1867C237.787 45.2881 236.357 43.9025 235.404 42.2008V55.5384C235.436 56.0473 235.352 56.5567 235.158 57.0284C234.965 57.5001 234.667 57.9219 234.288 58.2622C233.465 58.9464 232.415 59.2964 231.346 59.2428C230.259 59.2904 229.195 58.9163 228.377 58.1987C228.002 57.853 227.706 57.431 227.509 56.9611C227.312 56.4911 227.217 55.9843 227.233 55.4749V18.3403C227.206 17.8238 227.287 17.3073 227.472 16.8241C227.656 16.3409 227.94 15.9017 228.304 15.5348C228.696 15.1748 229.155 14.8963 229.656 14.7155C230.156 14.5347 230.687 14.4552 231.219 14.4816C232.3 14.433 233.356 14.8112 234.16 15.5348C234.535 15.8957 234.828 16.333 235.019 16.8171C235.21 17.3011 235.295 17.8206 235.268 18.3403V19.9746C236.207 18.2092 237.652 16.7644 239.417 15.8253C241.322 14.822 243.448 14.316 245.6 14.3545C248.203 14.3164 250.76 15.0424 252.955 16.4427V16.4427ZM249.459 38.6417C250.894 36.8259 251.611 34.3835 251.611 31.1513C251.611 27.919 250.894 25.2678 249.459 23.4429C248.708 22.5849 247.783 21.8961 246.746 21.422C245.709 20.9478 244.583 20.6991 243.442 20.6922C242.302 20.6854 241.173 20.9205 240.13 21.3822C239.087 21.8438 238.154 22.5214 237.393 23.3702C235.976 25.1861 235.268 27.7374 235.268 31.0242C235.268 34.3109 235.976 36.838 237.393 38.6054C238.112 39.5069 239.036 40.2241 240.087 40.6977C241.139 41.1714 242.288 41.3879 243.44 41.3292C244.583 41.3805 245.722 41.1643 246.767 40.6977C247.812 40.2312 248.734 39.5272 249.459 38.6417V38.6417Z" fill="#FAFAFA"/>
<path d="M287.048 15.1988C287.397 15.5217 287.67 15.918 287.847 16.3592C288.025 16.8004 288.102 17.2754 288.074 17.7501C288.111 18.2208 288.056 18.6942 287.909 19.1431C287.763 19.592 287.528 20.0073 287.22 20.365C286.345 21.0598 285.268 21.4518 284.151 21.4817L282.19 21.6724C279.612 21.9357 277.732 22.8073 276.534 24.2873C275.295 25.869 274.653 27.836 274.718 29.8438V43.5718C274.752 44.115 274.664 44.6589 274.46 45.1634C274.255 45.6679 273.94 46.12 273.538 46.4863C272.715 47.1733 271.667 47.5322 270.596 47.4941C269.535 47.5336 268.499 47.174 267.69 46.4863C267.298 46.1142 266.991 45.6602 266.794 45.1565C266.596 44.6528 266.512 44.1118 266.547 43.5718V18.2767C266.514 17.7519 266.601 17.2265 266.799 16.7394C266.997 16.2523 267.301 15.8158 267.69 15.4621C268.485 14.7969 269.497 14.4478 270.532 14.4816C271.529 14.4389 272.504 14.7801 273.256 15.4349C273.62 15.7846 273.902 16.2097 274.084 16.6802C274.266 17.1507 274.343 17.6553 274.309 18.1587V20.7735C275.056 18.9517 276.342 17.4022 277.996 16.3337C279.627 15.2748 281.502 14.6498 283.443 14.5179L284.351 14.4543C284.828 14.3904 285.312 14.4233 285.775 14.5513C286.239 14.6792 286.672 14.8995 287.048 15.1988V15.1988Z" fill="#FAFAFA"/>
<path d="M315.185 17.6503C317.346 19.8597 318.426 23.2069 318.426 27.6921V43.6445C318.452 44.1553 318.371 44.6658 318.19 45.1439C318.009 45.6221 317.731 46.0575 317.373 46.4228C316.985 46.7721 316.532 47.041 316.039 47.2139C315.547 47.3869 315.025 47.4606 314.504 47.4306C313.994 47.4511 313.486 47.3693 313.009 47.19C312.532 47.0106 312.095 46.7374 311.725 46.3865C311.366 46.0325 311.084 45.6074 310.898 45.1384C310.712 44.6694 310.626 44.1669 310.645 43.6627V42.2191C309.932 43.8851 308.708 45.2811 307.149 46.2049C305.476 47.1887 303.561 47.6885 301.62 47.6485C299.604 47.6757 297.611 47.2278 295.8 46.3411C294.126 45.5245 292.705 44.2694 291.687 42.7094C290.687 41.1972 290.162 39.42 290.18 37.6068C290.071 35.5929 290.718 33.6109 291.996 32.0502C293.207 30.6944 295.159 29.7138 297.852 29.1085C301.535 28.4135 305.282 28.1092 309.029 28.2006H310.663V26.7025C310.663 24.5688 310.2 23.0072 309.292 22.0266C308.384 21.046 306.895 20.5557 304.843 20.5557C303.538 20.5602 302.239 20.7466 300.985 21.1096C299.677 21.4788 298.131 22.0115 296.345 22.7076C295.583 23.1595 294.736 23.45 293.857 23.561C293.493 23.5713 293.131 23.5 292.798 23.3524C292.465 23.2047 292.169 22.9844 291.932 22.7076C291.412 22.09 291.143 21.2991 291.179 20.4922C291.165 19.8066 291.358 19.1327 291.733 18.5583C292.228 17.9084 292.869 17.383 293.603 17.0239C295.322 16.1265 297.154 15.4668 299.051 15.0627C301.096 14.591 303.189 14.3504 305.288 14.3455C309.731 14.3515 313.03 15.4531 315.185 17.6503ZM308.584 39.5588C309.986 38.0168 310.727 35.9853 310.645 33.9024V32.5223H309.465C307.191 32.4824 304.918 32.6159 302.664 32.9218C301.403 33.0371 300.202 33.5131 299.205 34.2928C298.844 34.6441 298.564 35.0696 298.384 35.5399C298.203 36.0102 298.127 36.5141 298.161 37.0166C298.141 37.6613 298.262 38.3026 298.516 38.8955C298.77 39.4884 299.151 40.0185 299.632 40.4486C300.622 41.3513 301.924 41.8332 303.263 41.7924C304.258 41.819 305.247 41.6336 306.164 41.2485C307.082 40.8634 307.906 40.2874 308.584 39.5588V39.5588Z" fill="#EC5F5E"/>
<path d="M352.446 16.4427C354.653 17.8981 356.401 19.9512 357.485 22.3624C358.734 25.1215 359.354 28.1234 359.301 31.1513C359.362 34.1507 358.741 37.1247 357.485 39.8493C356.418 42.2246 354.672 44.231 352.466 45.6157C350.261 47.0003 347.695 47.7013 345.092 47.6303C342.978 47.667 340.889 47.1705 339.018 46.1867C337.284 45.2895 335.851 43.9038 334.896 42.2008V55.5384C334.927 56.0464 334.844 56.555 334.652 57.0264C334.46 57.4979 334.165 57.9203 333.788 58.2622C332.964 58.944 331.915 59.2937 330.846 59.2428C329.756 59.2918 328.689 58.9177 327.868 58.1987C327.494 57.853 327.198 57.431 327 56.9611C326.803 56.4912 326.709 55.9843 326.724 55.4749V18.3403C326.699 17.8232 326.782 17.3064 326.968 16.8233C327.154 16.3401 327.439 15.9012 327.805 15.5348C328.195 15.1751 328.653 14.8967 329.152 14.7158C329.65 14.535 330.18 14.4554 330.71 14.4816C331.791 14.433 332.848 14.8113 333.652 15.5348C334.029 15.8949 334.323 16.3319 334.516 16.816C334.708 17.3 334.795 17.8199 334.769 18.3403V19.9746C335.705 18.2072 337.151 16.7617 338.918 15.8253C340.819 14.8209 342.943 14.3148 345.092 14.3545C347.695 14.3148 350.252 15.041 352.446 16.4427V16.4427ZM348.951 38.6417C350.385 36.8259 351.112 34.3835 351.112 31.1513C351.112 27.919 350.385 25.2678 348.951 23.4429C348.239 22.5426 347.321 21.8257 346.276 21.3518C345.23 20.878 344.087 20.6611 342.94 20.7191C341.792 20.6551 340.645 20.8645 339.594 21.3302C338.543 21.7958 337.617 22.5043 336.893 23.3975C335.468 25.2134 334.769 27.7374 334.769 31.0514C334.769 34.3654 335.468 36.844 336.893 38.6326C337.613 39.5341 338.536 40.2513 339.588 40.725C340.639 41.1986 341.788 41.4151 342.94 41.3565C344.084 41.4052 345.224 41.185 346.268 40.7136C347.312 40.2421 348.231 39.5325 348.951 38.6417V38.6417Z" fill="#EC5F5E"/>
<path d="M391.733 16.4427C393.942 17.8958 395.69 19.9496 396.772 22.3624C398.02 25.1215 398.64 28.1234 398.588 31.1513C398.648 34.1507 398.027 37.1247 396.772 39.8493C395.705 42.2246 393.958 44.231 391.753 45.6157C389.547 47.0003 386.981 47.7013 384.378 47.6303C382.265 47.667 380.176 47.1705 378.304 46.1867C376.574 45.2848 375.142 43.9002 374.182 42.2008V55.5384C374.214 56.0464 374.13 56.555 373.939 57.0264C373.747 57.4979 373.452 57.9203 373.075 58.2622C372.25 58.944 371.201 59.2937 370.133 59.2428C369.043 59.2918 367.976 58.9177 367.155 58.1987C366.78 57.853 366.484 57.431 366.287 56.9611C366.089 56.4912 365.995 55.9843 366.011 55.4749V18.3403C365.985 17.8232 366.068 17.3064 366.254 16.8233C366.441 16.3401 366.726 15.9012 367.091 15.5348C367.481 15.1751 367.939 14.8967 368.438 14.7158C368.937 14.535 369.467 14.4554 369.997 14.4816C371.078 14.43 372.136 14.8087 372.938 15.5348C373.315 15.8949 373.609 16.3319 373.802 16.816C373.995 17.3 374.081 17.8199 374.055 18.3403V19.9746C374.992 18.2072 376.437 16.7617 378.204 15.8253C380.105 14.8209 382.229 14.3148 384.378 14.3545C386.982 14.3137 389.539 15.04 391.733 16.4427V16.4427ZM388.237 38.6417C389.681 36.8259 390.398 34.3835 390.398 31.1513C390.398 27.919 389.681 25.2678 388.237 23.4429C387.525 22.5426 386.608 21.8257 385.562 21.3518C384.517 20.878 383.373 20.6611 382.227 20.7191C381.079 20.6551 379.932 20.8645 378.881 21.3302C377.829 21.7958 376.904 22.5043 376.18 23.3975C374.763 25.2134 374.055 27.7647 374.055 31.0514C374.055 34.3381 374.763 36.8652 376.18 38.6326C376.945 39.4694 377.877 40.1376 378.915 40.5948C379.953 41.0519 381.074 41.288 382.208 41.288C383.343 41.288 384.464 41.0519 385.502 40.5948C386.54 40.1376 387.472 39.4694 388.237 38.6326V38.6417Z" fill="#EC5F5E"/>
<path d="M139 9.38096C139 9.38096 139.5 6.43747 141.434 6.01361C143.368 5.58975 149.328 15.1973 148.986 16.4453C148.644 17.6934 146.499 16.4453 146.499 16.4453C146.499 16.4453 142.329 9.02774 139 9.38096Z" fill="url(#paint2_linear_419_37)"/>
<path d="M144.5 20C144.776 20 145 19.7761 145 19.5C145 19.2239 144.776 19 144.5 19C144.224 19 144 19.2239 144 19.5C144 19.7761 144.224 20 144.5 20Z" fill="#C67413"/>
<path d="M142.47 21.94C142.73 21.94 142.94 21.7296 142.94 21.47C142.94 21.2104 142.73 21 142.47 21C142.21 21 142 21.2104 142 21.47C142 21.7296 142.21 21.94 142.47 21.94Z" fill="#C67413"/>
<defs>
<linearGradient id="paint0_linear_419_37" x1="146.807" y1="14.0057" x2="165.775" y2="8.75888" gradientUnits="userSpaceOnUse">
<stop stop-color="#397D3C"/>
<stop offset="1" stop-color="#6C8C36"/>
</linearGradient>
<linearGradient id="paint1_linear_419_37" x1="133.062" y1="30.9243" x2="165.684" y2="30.9243" gradientUnits="userSpaceOnUse">
<stop stop-color="#FDC438"/>
<stop offset="1" stop-color="#F49619"/>
</linearGradient>
<linearGradient id="paint2_linear_419_37" x1="139" y1="11.5003" x2="148.999" y2="11.5003" gradientUnits="userSpaceOnUse">
<stop stop-color="#D09306"/>
<stop offset="1" stop-color="#C67413"/>
</linearGradient>
</defs>
</svg>
