<svg width="62" height="58" viewBox="0 0 62 58" fill="none" xmlns="http://www.w3.org/2000/svg">
<path d="M36.6837 7.70626C36.6837 7.70626 39.6369 0.1681 43.0417 0.829988C46.8409 1.57067 44.7233 10.6637 44.7233 10.6637L36.6837 7.70626Z" fill="#FFB903"/>
<path d="M26.6044 6.44544C26.6044 6.44544 23.0232 -0.730266 20.0285 0.309843C17.0337 1.34995 19.224 10.8107 19.224 10.8107L26.6044 6.44544V6.44544Z" fill="#FFB903"/>
<path d="M22.8 6.96535C22.8 6.96535 23.8225 5.70987 32.3707 6.00404C40.9189 6.29821 45.6679 9.33449 45.6679 9.33449C45.6679 9.33449 48.6159 7.0494 51.4913 6.05657C55.7628 4.58571 61.5083 7.05991 61.9599 8.00546C62.3076 8.72513 60.3509 15.1339 57.7974 17.3244C54.948 19.7671 51.8806 19.6148 51.8806 19.6148C51.8806 19.6148 51.2058 24.1061 51.0761 27.4523C51.0034 29.375 51.2629 31.3816 51.5899 32.406C52.2491 34.4757 52.6228 35.8993 52.9497 38.4365C53.2248 40.5535 53.2715 42.6075 53.2715 42.6075L19.3693 33.9557L22.8 6.96535V6.96535Z" fill="#DFDFDF"/>
<path d="M18.051 33.3677C18.051 33.3677 23.3605 31.9389 24.7723 31.1719C25.9764 30.5205 32.7392 27.521 33.2478 18.2809C33.7565 9.0407 27.3103 6.35112 26.4331 6.12524C25.556 5.90461 22.39 6.76612 20.5371 7.70116C19.7482 8.1004 18.051 9.25607 18.051 9.25607C18.051 9.25607 14.6878 5.705 9.4301 5.19019C4.17245 4.67014 0.222728 7.48054 0.150065 7.8535C0.077403 8.22122 2.12233 15.4862 5.86445 18.013C6.95439 18.7484 8.35574 19.0793 9.31592 19.2107C11.828 19.5574 12.7881 19.2422 12.7881 19.2422C12.7881 19.2422 12.4248 23.161 12.3522 25.1571C12.2795 27.1533 12.238 29.9742 12.0096 32.0124C11.8643 33.3204 10.11 36.7927 10.0633 39.3562C10.0322 41.0582 18.051 33.3677 18.051 33.3677V33.3677Z" fill="#BC8954"/>
<path d="M32.0385 32.7739C38.3498 32.9262 39.8186 31.8126 44.1212 32.1067C48.4239 32.4009 53.9047 36.9868 53.3857 43.5689C52.8667 50.1511 47.4585 54.8841 41.6767 56.2131C35.8948 57.5421 22.9972 57.6945 16.9195 54.364C10.8159 51.0231 9.50796 46.5264 9.4353 42.3082C9.36263 38.09 12.4715 32.0332 19.2136 31.2978C25.9556 30.5623 25.8103 32.6268 32.0385 32.7739V32.7739Z" fill="#FFD3B0"/>
<path d="M48.7405 14.5089C47.661 12.5967 48.7405 9.57622 52.1505 8.78826C55.5604 8.0003 58.9703 9.57622 58.9703 9.57622C58.9703 9.57622 57.9271 13.6211 55.5604 15.197C53.5622 16.5313 50.2976 17.2667 48.7405 14.5089Z" fill="#FFD3B0"/>
<path d="M10.9404 8.98779C7.90418 8.03173 3.95445 9.27671 3.95445 9.27671C3.95445 9.27671 4.07902 11.0522 5.32466 12.77C6.07205 13.7996 7.18793 15.0341 8.95259 15.6224C13.0944 17.004 14.641 14.5088 14.9784 13.3741C15.3261 12.2394 14.6929 10.1697 10.9404 8.98779V8.98779Z" fill="#FFD3B0"/>
<path d="M26.3754 24.1811C26.6554 22.2141 25.6473 20.4395 24.1238 20.2173C22.6002 19.9951 21.1381 21.4096 20.8582 23.3766C20.5782 25.3437 21.5863 27.1183 23.1098 27.3405C24.6334 27.5626 26.0955 26.1481 26.3754 24.1811Z" fill="#0A0A0A"/>
<path d="M41.8764 27.5753C43.3974 27.3356 44.3852 25.5472 44.0827 23.5806C43.7802 21.6141 42.3021 20.2142 40.7811 20.4538C39.2601 20.6934 38.2723 22.4819 38.5748 24.4484C38.8772 26.415 40.3554 27.8149 41.8764 27.5753Z" fill="#0A0A0A"/>
<path d="M35.8792 45.9641C34.3222 44.7296 35.1941 41.4727 37.7788 39.6552C40.5089 37.7325 43.3479 38.4365 43.8669 39.6079C44.5468 41.1365 43.7683 42.0716 42.9431 42.7125C42.1594 43.3166 41.0902 43.2062 40.4103 43.6002C39.7304 43.9942 39.4345 45.0291 38.5107 45.8696C37.6543 46.6418 36.3983 46.3686 35.8792 45.9641V45.9641Z" fill="#2E2F31"/>
<path d="M18.9281 39.8497C19.416 37.6329 22.909 37.7169 25.4055 39.6501C28.0421 41.6935 28.5715 44.5827 27.4504 45.565C26.1736 46.6892 24.9384 46.1271 24.1702 45.4547C23.4228 44.8033 23.1581 44.278 22.5768 43.737C22.0007 43.2012 20.9679 43.0436 19.8987 42.4079C18.9126 41.8249 18.7205 40.7952 18.9281 39.8497V39.8497Z" fill="#2E2F31"/>
</svg>
