<svg width="53" height="61" viewBox="0 0 53 61" fill="none" xmlns="http://www.w3.org/2000/svg">
<path d="M9.46999 38.375C9.46999 37.905 9.31499 31.16 8.68499 28.73C8.05499 26.3 6.87999 25.2 6.56499 21.67C6.24999 18.14 8.29999 15.18 9.23499 14.075C10.96 12.04 13.465 11.085 13.465 11.085C13.465 11.085 12.88 7.50002 15.66 5.83002C18.8 3.94502 21.155 7.00002 21.625 7.23502C22.095 7.47002 31.665 2.22002 31.665 2.22002C31.665 2.22002 33.39 0.915024 36.765 0.965024C41.425 1.03002 43.34 3.86002 44.215 4.88502C45.55 6.45502 46.675 10.25 46.6 12.525C46.525 14.8 45.985 15.88 46.245 16.42C46.505 16.96 47.93 16.695 49.21 18.23C50.385 19.64 51.96 21.875 52.04 26.03C52.115 30.055 48.18 35.375 47.24 36.235C46.3 37.1 45.195 37.975 44.41 39.155C43.625 40.33 42.645 42.7 40.61 44.27C38.57 45.84 35.44 46.45 33.4 46.685C31.36 46.92 29.3 46.515 27.88 47.45C26.41 48.415 24.67 52.535 21.84 54.745C20.18 56.045 18.775 56.545 17.185 56.63C14.745 56.765 13.68 56.175 12.695 55.895C11.04 55.425 9.46999 38.375 9.46999 38.375V38.375Z" fill="#598B15"/>
<path d="M5.21499 50.015C5.21499 50.015 1.89499 47.59 2.81499 43C3.63499 38.9 6.03499 37.175 7.12499 33.365C8.20499 29.585 7.56499 27.93 7.28999 26.14C6.98999 24.185 6.82999 24.035 7.05499 23.935C7.28999 23.83 9.46999 29.825 9.46999 29.96C9.51499 31.695 10.01 34.615 9.64499 36.385C9.27999 38.155 5.82999 40.695 5.60499 42.42C5.37999 44.145 4.69499 48.005 5.10499 49.045C5.51499 50.09 7.50999 50.46 7.50999 50.46L5.21499 50.015Z" fill="#85BB41"/>
<path d="M5.47 49.5099C5.29 49.7499 4.565 50.6549 3.78 51.3199C2.995 51.9849 1.245 52.4049 1.305 52.8299C1.365 53.2499 6.37 57.7749 6.37 57.7749L10.52 60.7599C10.52 60.7599 11.74 59.3249 12.51 57.9299C12.93 57.1699 13.43 56.1449 13.43 56.1449C13.43 56.1449 14.76 56.7549 16.815 56.4249C19.89 55.9349 22.67 52.3699 23.87 50.2349C24.63 48.8849 26.035 46.1899 28.265 44.9249C30.495 43.6599 33.17 43.4449 35.705 42.0599C37.69 40.9699 40.39 38.5899 41.475 36.8449C42.56 35.0949 42.5 34.4449 42.5 34.4449C42.5 34.4449 48.35 27.6749 46.36 20.1949C44.37 12.7149 42.38 13.5599 40.99 11.6299C39.605 9.69986 39.42 4.81486 34.595 2.82486C29.77 0.834863 24.95 2.81486 22.46 4.84486C20.065 6.79486 16.09 9.97486 13.895 17.3149C12.76 21.1199 13.89 27.3899 13.745 29.0349C13.505 31.7349 10.295 35.3399 10.295 35.3399C10.295 35.3399 6.675 39.4399 6.495 39.9249C6.315 40.4099 4.985 46.3799 4.985 46.3799L5.47 49.5099V49.5099Z" fill="url(#paint0_radial_431_46)"/>
<path d="M14.825 49.955C15.28 50 18.865 49.4999 21.315 46.2799C23.765 43.0599 23.72 39.2449 23.675 39.3799C23.63 39.5149 17.365 40.1949 17.275 42.3299C17.185 44.4599 14.825 49.955 14.825 49.955V49.955Z" fill="#598B15"/>
<path d="M7.13999 51.365C7.13999 51.365 3.68999 50.235 3.99999 45.495C4.29999 40.87 8.03499 38.775 8.71499 33.58C9.04499 31.065 8.34499 29.105 7.72499 27C7.04999 24.705 6.49999 22.485 6.87499 23.23C7.45999 24.395 7.88999 25.155 9.24999 28.435C10.065 30.4 10.72 32.77 10.415 35.165C9.91999 39.06 6.24499 42.24 5.92999 45.455C5.55999 49.225 7.45499 50.84 7.45499 50.84L7.13999 51.365Z" fill="#E9E7D7"/>
<path d="M9.01999 54.915C7.85999 53.89 6.23499 51.7 7.03999 48.855C8.08999 45.145 10.38 43.97 12.665 40.505C14.95 37.04 15.325 33.78 15.37 30.31C15.43 25.67 15.695 21.95 16.5 21.705C17.305 21.46 16.89 26.335 17.075 30.355C17.205 33.135 17.55 37.41 17.55 37.41C17.55 37.41 20.005 35.35 20.595 32.565C21.645 27.62 19.665 22.265 20.085 16.695C20.4 12.55 22.365 8.52496 24.35 6.36996C25.77 4.82496 27.195 3.64996 27.625 3.89496C28.055 4.13996 25.15 7.10996 23.855 10.575C22.56 14.04 22.255 17.44 22.75 21.15C23.245 24.86 23.94 28.54 24.375 28.415C24.81 28.29 27.455 23.03 28.28 18.985C29.085 15.025 29.495 12.37 31.41 9.70996C33.325 7.04996 35.555 5.50496 35.925 5.87496C36.58 6.52996 34.145 7.72496 32.54 11.68C31.58 14.04 31.6 15.665 30.77 19.755C30.345 21.86 28.765 26.57 28.825 26.76C28.885 26.95 31.055 25.85 32.6 24.74C34.145 23.63 36.855 21.57 39.265 18.415C40.63 16.625 41.55 15.15 42.17 15.58C42.79 16.015 40.02 21.35 37.46 23.735C33.81 27.135 29.12 29.68 29.12 30.17C29.12 30.66 33.59 30.265 38.045 29.035C41.63 28.045 45.445 25.285 45.88 25.965C46.315 26.645 41.86 29.17 38.96 30.295C34.32 32.09 30.42 31.905 27.76 33.51C25.1 35.12 23.51 37.78 23.245 38.27C23.15 38.445 27.695 37.22 32.025 36.6C36.355 35.98 42.29 33.88 42.475 34.56C42.66 35.24 40.31 36.6 35.115 37.835C29.92 39.07 25.965 40.245 23.12 42.04C20.275 43.835 18.485 46.01 17 48.605C15.515 51.2 15.49 55.29 13.325 56.22C11.9 56.83 10.075 55.84 9.01999 54.915Z" fill="#E9E7D7"/>
<path d="M1.37501 52.55C0.735015 52.87 0.990015 53.815 1.37001 54.39C1.94501 55.275 2.92001 56.28 5.25501 58.105C7.07001 59.52 7.98001 60.165 9.03001 60.62C9.85001 60.975 10.675 60.995 10.81 60.445C10.845 60.305 7.86501 58.37 5.99001 56.88C2.76001 54.32 1.51501 52.48 1.37501 52.55V52.55Z" fill="#B5CF17"/>
<defs>
<radialGradient id="paint0_radial_431_46" cx="0" cy="0" r="1" gradientUnits="userSpaceOnUse" gradientTransform="translate(45.0165 8.14386) scale(62.8965)">
<stop offset="0.554" stop-color="#85BB41"/>
<stop offset="0.614" stop-color="#A2C65F"/>
<stop offset="0.706" stop-color="#C9D487"/>
<stop offset="0.779" stop-color="#E1DDA0"/>
<stop offset="0.823" stop-color="#EAE0A9"/>
</radialGradient>
</defs>
</svg>
